<?xml version="1.0" standalone="no"?>
<!DOCTYPE svg PUBLIC "-//W3C//DTD SVG 20010904//EN"
 "http://www.w3.org/TR/2001/REC-SVG-20010904/DTD/svg10.dtd">
<svg version="1.0" xmlns="http://www.w3.org/2000/svg"
 width="512.000000pt" height="512.000000pt" viewBox="0 0 512.000000 512.000000"
 preserveAspectRatio="xMidYMid meet">
<metadata>
Created by potrace 1.14, written by Peter Selinger 2001-2017
</metadata>
<g transform="translate(0.000000,512.000000) scale(0.100000,-0.100000)"
fill="#000000" stroke="none">
<path d="M0 5044 l0 -76 68 48 c37 26 85 61 106 76 l39 28 -106 0 -107 0 0
-76z"/>
<path d="M169 5054 c-156 -110 -169 -122 -169 -155 0 -32 11 -37 31 -13 14 17
222 167 282 203 20 12 37 25 37 27 0 2 -20 4 -44 4 -37 0 -56 -9 -137 -66z"/>
<path d="M340 5073 c-41 -26 -135 -91 -208 -145 -126 -95 -132 -100 -132 -135
l0 -35 53 44 c67 57 238 179 347 248 112 71 111 70 60 70 -36 0 -60 -10 -120
-47z"/>
<path d="M785 5064 c-238 -120 -471 -273 -679 -447 l-106 -88 0 -287 1 -287
20 25 c254 309 609 596 959 774 366 187 723 296 1145 351 89 11 28 13 -565 14
l-665 0 -110 -55z"/>
<path d="M2975 5105 c537 -70 1007 -240 1425 -516 249 -164 471 -360 643 -567
l77 -93 -2 282 -3 283 -89 79 c-202 177 -459 351 -707 477 l-138 70 -653 -1
c-584 -1 -642 -3 -553 -14z"/>
<path d="M4586 5112 c5 -5 47 -32 94 -62 116 -74 280 -192 365 -263 l70 -58 3
31 c4 36 7 33 -173 168 -192 145 -272 192 -325 192 -24 0 -40 -4 -34 -8z"/>
<path d="M4730 5116 c0 -2 17 -15 38 -27 60 -36 243 -168 300 -217 l52 -44 0
34 c0 39 -24 61 -209 192 -81 57 -100 66 -137 66 -24 0 -44 -2 -44 -4z"/>
<path d="M4974 5043 c59 -43 116 -84 127 -92 18 -13 19 -10 19 78 l0 91 -127
0 -127 0 108 -77z"/>
<path d="M1209 4720 c-91 -11 -275 -48 -332 -67 -88 -28 -493 -316 -541 -385
-36 -51 -15 -149 49 -237 117 -159 407 -288 767 -341 183 -27 500 -27 683 0
479 70 804 264 831 496 5 39 1 60 -19 107 -28 61 -107 152 -173 197 -125 87
-321 161 -545 206 -121 24 -159 27 -394 30 -143 1 -290 -1 -326 -6z m146 -96
c-146 -15 -285 -43 -369 -74 -53 -20 -56 -23 -56 -55 0 -18 -3 -40 -6 -48 -3
-8 5 -24 17 -36 23 -21 44 -19 35 5 -3 8 5 21 18 29 26 17 170 68 226 80 l35
8 -22 -19 -23 -19 35 -50 c19 -27 34 -56 35 -63 0 -7 6 -23 12 -35 7 -12 13
-33 13 -46 0 -21 7 -26 40 -34 47 -10 115 -2 140 17 18 13 17 14 -11 29 -27
15 -27 16 -6 17 19 0 21 4 16 28 -19 76 -75 145 -139 166 l-37 13 73 8 c89 8
280 18 367 19 56 0 65 -3 85 -26 17 -21 34 -28 78 -33 51 -6 57 -5 62 14 3 12
20 27 37 35 l32 13 -93 21 c-135 30 -168 34 -324 42 l-140 7 115 1 c140 2 334
-25 480 -68 58 -16 117 -30 132 -30 18 0 33 -8 43 -24 12 -18 29 -26 66 -31
40 -6 49 -10 49 -27 0 -11 25 -47 55 -81 54 -60 96 -151 80 -177 -3 -5 4 -19
15 -30 21 -21 19 -40 -3 -40 -7 0 -23 -20 -36 -44 -12 -25 -47 -68 -77 -96
-46 -44 -53 -55 -48 -80 6 -26 3 -29 -32 -39 -22 -6 -61 -11 -87 -11 -27 0
-57 -5 -68 -10 -34 -19 -183 -58 -285 -76 -71 -13 -167 -18 -342 -21 -226 -2
-245 -4 -272 -23 -47 -34 -82 -27 -138 29 -44 44 -54 49 -110 55 -33 4 -62 12
-64 17 -2 6 -41 15 -86 19 -91 10 -162 41 -162 72 0 19 80 108 96 108 6 0 -12
-23 -38 -51 -27 -27 -48 -56 -45 -62 6 -19 78 -39 120 -34 55 7 85 31 97 77
13 48 8 60 -26 60 -14 0 -37 8 -52 19 -15 10 -39 26 -54 35 -16 9 -28 25 -28
36 0 19 -7 20 -129 20 -102 0 -131 3 -141 15 -7 8 -19 15 -28 15 -8 0 -12 3
-8 7 3 4 87 6 185 4 120 -2 181 1 186 8 3 6 -1 14 -10 17 -12 5 -13 9 -4 14 8
5 -1 16 -27 33 -79 50 -106 104 -99 197 5 69 17 91 49 89 l21 -2 -22 -4 c-21
-4 -39 -30 -28 -41 3 -4 40 -9 83 -13 l77 -7 -82 2 -83 3 0 -54 c0 -79 28
-126 93 -160 46 -24 63 -27 152 -27 114 0 150 11 214 69 44 40 43 58 -2 69
-12 3 4 3 36 0 l57 -4 -15 37 c-9 21 -22 44 -29 53 -7 8 -16 23 -19 33 -8 23
-18 22 -117 -16 -85 -32 -85 -33 -83 -67 1 -19 8 -39 17 -46 14 -10 14 -13 -2
-27 -32 -29 -68 -31 -91 -6 -16 18 -21 36 -21 80 0 32 -5 61 -11 64 -6 5 -4
12 8 20 17 12 17 14 1 32 -17 18 -16 20 30 36 128 44 356 85 477 85 58 -1 47
-3 -60 -14z m23 -301 c-10 -2 -28 -2 -40 0 -13 2 -5 4 17 4 22 1 32 -1 23 -4z
m-594 -114 l31 -1 -31 -9 c-23 -7 -41 -5 -65 7 l-34 15 34 -5 c18 -4 48 -6 65
-7z m-229 -9 c-28 -12 -45 -12 -45 0 0 6 15 10 33 9 27 0 29 -2 12 -9z"/>
<path d="M1675 4552 c-49 -9 -59 -35 -18 -50 28 -10 28 -10 -9 -11 -21 -1 -37
2 -37 7 7 40 2 42 -111 42 -67 0 -110 -4 -110 -10 0 -5 13 -10 28 -10 41 0
138 -36 117 -44 -10 -3 -15 -15 -13 -28 3 -20 10 -24 58 -28 59 -5 68 -20 20
-33 -16 -4 -30 -9 -30 -10 0 -1 7 -27 15 -57 13 -50 13 -56 -1 -67 -41 -31
-210 -29 -257 2 -26 17 -28 17 -62 -9 -19 -15 -35 -29 -35 -31 0 -2 56 -3 125
-3 81 1 129 -3 138 -11 11 -9 17 -8 27 4 8 10 29 15 59 14 66 0 129 -13 114
-22 -25 -15 -13 -27 27 -27 22 0 40 4 40 8 0 9 -45 44 -92 74 -16 10 -28 24
-28 32 0 11 8 8 26 -9 15 -14 45 -30 68 -35 23 -6 50 -15 61 -22 10 -6 20 -7
22 -2 2 5 37 8 78 6 42 -3 100 -1 130 3 53 6 55 7 48 33 l-6 27 32 -28 c35
-29 55 -33 95 -17 28 10 34 38 14 58 -13 13 -84 17 -91 5 -3 -5 -71 -8 -151
-8 -166 0 -168 1 -164 75 l3 45 103 3 c86 2 102 0 102 -13 0 -12 -13 -15 -58
-15 -69 0 -103 -19 -86 -47 10 -15 28 -18 126 -21 147 -3 166 3 170 59 2 25 9
44 17 47 9 3 11 -1 7 -15 -7 -23 24 -69 54 -78 11 -4 31 -30 46 -61 14 -29 32
-58 41 -62 13 -8 11 -13 -11 -37 -14 -15 -26 -38 -26 -51 0 -14 -11 -32 -28
-44 l-29 -21 18 -52 c10 -29 18 -60 19 -69 0 -12 8 -18 25 -18 36 0 33 -30 -2
-31 -25 -2 -25 -2 -5 -6 33 -6 54 13 40 37 -10 16 -3 27 55 83 44 42 69 75 73
95 3 17 12 33 20 36 10 4 12 18 7 58 -9 79 -37 134 -98 195 -30 31 -55 59 -55
63 0 5 -9 6 -20 3 -11 -3 -20 -9 -20 -14 0 -5 -4 -9 -10 -9 -5 0 -7 7 -4 15 9
22 -14 45 -45 46 -14 0 -20 3 -13 6 21 8 13 23 -14 23 -22 0 -25 -2 -14 -15
10 -12 10 -15 -3 -15 -9 0 -25 14 -37 30 -19 27 -27 30 -73 30 -59 0 -73 -7
-78 -35 -4 -19 -13 -20 -124 -22 -90 -1 -112 1 -87 8 30 9 42 31 23 43 -16 10
-94 14 -136 8z m742 -367 l48 -24 -75 1 c-62 1 -68 2 -31 7 35 5 41 8 30 17
-8 6 -21 14 -29 17 -8 3 -10 6 -3 6 6 1 33 -10 60 -24z"/>
<path d="M1528 4313 c7 -3 16 -2 19 1 4 3 -2 6 -13 5 -11 0 -14 -3 -6 -6z"/>
<path d="M1163 4251 c-29 -14 -52 -29 -53 -33 -1 -25 112 13 139 45 12 15 11
17 -10 16 -13 -1 -47 -14 -76 -28z m57 9 c0 -5 -5 -10 -11 -10 -5 0 -7 5 -4
10 3 6 8 10 11 10 2 0 4 -4 4 -10z"/>
<path d="M1522 4269 c-13 -5 -21 -13 -18 -18 8 -12 59 2 64 17 4 14 -13 15
-46 1z"/>
<path d="M880 4196 c0 -8 5 -18 10 -21 6 -3 10 3 10 14 0 12 -4 21 -10 21 -5
0 -10 -6 -10 -14z"/>
<path d="M1353 4203 c-16 -6 -17 -33 -2 -33 6 0 20 5 31 11 17 9 18 13 7 20
-15 10 -18 10 -36 2z"/>
<path d="M1552 4198 c5 -15 50 -39 58 -32 6 7 -38 44 -52 44 -5 0 -8 -6 -6
-12z"/>
<path d="M1618 4190 c22 -21 25 -21 40 -6 14 13 14 16 2 16 -8 0 -26 3 -40 7
l-25 6 23 -23z"/>
<path d="M2250 4196 c-10 -13 -9 -17 4 -22 22 -8 49 3 44 19 -7 18 -33 20 -48
3z"/>
<path d="M936 4193 c-3 -3 -3 -10 0 -14 7 -12 61 -11 69 1 4 6 15 6 31 0 40
-15 277 -13 272 3 -6 16 -66 21 -84 6 -10 -8 -14 -8 -14 0 0 13 -112 11 -122
-3 -4 -6 -11 -6 -20 1 -13 11 -122 16 -132 6z"/>
<path d="M1415 4190 c-8 -12 17 -23 41 -18 10 1 19 9 22 16 5 15 -54 17 -63 2z"/>
<path d="M1782 4182 c9 -11 27 -13 71 -9 96 9 95 27 -1 26 -71 -2 -80 -4 -70
-17z"/>
<path d="M1940 4191 c0 -15 21 -17 152 -17 181 1 172 20 -9 23 -79 2 -143 -1
-143 -6z"/>
<path d="M816 4137 c-45 -33 25 -86 85 -65 35 12 42 30 23 57 -18 25 -79 29
-108 8z"/>
<path d="M950 4135 c0 -28 20 -55 40 -55 23 0 27 -15 5 -24 -33 -12 -15 -44
45 -81 65 -39 80 -55 55 -55 -9 0 -13 5 -10 10 3 6 2 10 -4 10 -5 0 -17 3 -27
7 -13 5 -16 3 -11 -10 5 -13 1 -17 -18 -17 -25 0 -35 23 -15 35 11 7 4 25 -10
25 -16 0 -39 -30 -34 -44 3 -8 -3 -17 -15 -21 -24 -7 -37 -43 -22 -58 5 -5 57
-12 114 -15 124 -5 204 13 236 54 27 34 17 51 -54 98 -72 48 -72 55 0 71 27 6
28 5 12 -7 -17 -12 -15 -15 21 -38 22 -14 38 -30 36 -35 -3 -6 1 -18 8 -28 11
-14 25 -16 102 -10 l89 6 -32 29 -31 28 29 0 c16 0 34 7 41 15 10 12 6 18 -22
35 -36 22 -103 27 -114 8 -4 -6 5 -21 22 -35 l29 -23 -25 0 c-17 0 -29 8 -35
22 -6 13 -20 28 -33 34 -22 11 -23 12 -3 17 25 6 26 16 7 43 -13 17 -30 19
-195 22 -162 3 -181 2 -181 -13z"/>
<path d="M1600 4141 c-55 -11 -64 -20 -45 -41 14 -16 15 -19 2 -27 -22 -12 -3
-110 29 -146 27 -31 96 -66 134 -68 l25 -1 -25 -8 c-14 -4 -90 -8 -170 -9
l-145 -1 25 20 c14 11 37 22 52 25 68 16 33 56 -46 54 -112 -3 -149 -32 -71
-55 22 -7 33 -13 25 -13 -8 -1 -29 3 -46 8 -24 7 -41 4 -81 -15 -27 -13 -77
-27 -111 -30 -34 -4 -62 -11 -62 -15 0 -5 6 -9 13 -9 7 0 33 -20 57 -45 24
-25 48 -45 52 -45 5 0 22 10 37 21 28 20 42 21 288 23 237 2 268 4 378 28 67
15 152 38 189 52 38 14 74 26 82 26 7 0 27 13 44 29 l32 29 -23 16 c-19 13
-20 16 -6 16 22 0 22 5 -11 70 -36 71 -78 100 -146 100 -84 0 -87 -8 -41 -95
22 -41 45 -75 50 -75 6 0 2 -5 -7 -11 -22 -12 -23 -23 -2 -43 13 -14 13 -16 1
-16 -9 0 -25 12 -37 28 -14 18 -23 23 -27 14 -2 -7 -26 -23 -51 -36 -61 -31
-110 -44 -57 -15 48 25 95 68 95 85 0 7 -10 15 -22 17 -14 3 -9 5 15 6 44 1
46 11 12 66 -14 22 -25 48 -25 58 0 16 -8 18 -72 15 l-71 -3 -2 -30 c-2 -16
-6 -47 -10 -67 l-8 -38 59 4 c36 2 45 1 24 -3 -19 -3 -52 -19 -72 -34 -26 -20
-43 -27 -58 -22 -27 9 -52 59 -49 98 2 18 0 38 -5 45 -4 7 -1 12 8 12 19 0 21
23 3 38 -18 15 -85 22 -127 13z m58 -68 c-10 -2 -26 -2 -35 0 -10 3 -2 5 17 5
19 0 27 -2 18 -5z m475 -120 c-7 -2 -19 -2 -25 0 -7 3 -2 5 12 5 14 0 19 -2
13 -5z"/>
<path d="M2138 4143 c6 -2 18 -2 25 0 6 3 1 5 -13 5 -14 0 -19 -2 -12 -5z"/>
<path d="M2218 4140 c12 -5 22 -14 22 -20 0 -18 18 -11 23 10 4 17 0 20 -31
19 -32 0 -34 -1 -14 -9z"/>
<path d="M1430 4124 c0 -3 5 -14 10 -25 8 -14 21 -19 55 -19 44 0 44 0 33 25
-9 21 -18 25 -55 25 -23 0 -43 -3 -43 -6z"/>
<path d="M1370 4106 c0 -10 9 -16 21 -16 24 0 21 23 -4 28 -10 2 -17 -3 -17
-12z"/>
<path d="M1774 4090 c1 -35 21 -40 29 -8 7 25 1 38 -17 38 -8 0 -13 -12 -12
-30z"/>
<path d="M923 4056 l-23 -13 25 -11 c15 -7 27 -8 30 -2 4 6 -2 10 -12 10 -14
1 -13 4 7 15 14 8 18 14 10 14 -8 -1 -25 -7 -37 -13z"/>
<path d="M1508 3972 c19 -21 27 -20 19 3 -4 8 -13 15 -22 15 -13 0 -12 -3 3
-18z"/>
<path d="M1555 3900 c3 -5 -4 -10 -17 -11 -20 -1 -19 -2 7 -10 40 -12 62 -4
45 16 -14 17 -45 21 -35 5z"/>
<path d="M1488 3863 c12 -2 32 -2 45 0 12 2 2 4 -23 4 -25 0 -35 -2 -22 -4z"/>
<path d="M1610 3860 c0 -5 9 -10 20 -10 11 0 20 5 20 10 0 6 -9 10 -20 10 -11
0 -20 -4 -20 -10z"/>
<path d="M3410 4114 c-161 -15 -378 -78 -525 -152 -277 -138 -517 -377 -656
-653 -45 -91 -101 -254 -126 -371 -26 -118 -26 -438 0 -558 26 -123 82 -283
130 -375 l42 -80 1259 0 1260 0 37 70 c43 78 110 271 136 391 23 101 25 423 4
529 -22 116 -98 333 -147 424 -215 398 -588 671 -1033 755 -85 16 -300 27
-381 20z m-150 -943 c13 -26 13 -41 -2 -41 -16 0 -48 31 -48 47 0 20 38 16 50
-6z m-494 -6 c7 -18 -64 -135 -82 -135 -28 0 -23 23 18 85 43 67 55 76 64 50z
m392 -15 c13 -22 25 -30 52 -32 23 -2 35 -8 35 -18 0 -10 -9 -14 -27 -13 -34
2 -34 -2 -4 -70 15 -35 31 -56 45 -60 14 -3 21 -13 21 -30 0 -64 -48 -34 -91
58 -16 33 -29 65 -29 72 0 18 -22 21 -68 7 -44 -14 -75 -9 -69 10 2 6 26 17
53 25 27 7 51 15 53 17 2 2 -3 14 -12 28 -9 13 -13 26 -10 30 14 14 35 4 51
-24z m-754 1 c3 -5 3 -65 -1 -135 -5 -114 -8 -126 -25 -126 -11 0 -18 7 -18
20 0 11 -6 22 -12 24 -88 23 -105 46 -34 46 57 0 59 13 4 26 -23 5 -44 15 -46
23 -4 11 5 12 42 7 38 -6 46 -5 46 8 0 10 -9 16 -23 16 -29 0 -62 23 -53 38 4
7 17 8 35 2 34 -9 41 -5 41 25 0 12 3 25 7 28 9 10 31 9 37 -2z m94 -38 c2
-15 13 -24 33 -28 40 -9 39 -37 -1 -33 -40 4 -39 -16 1 -22 46 -7 50 -30 5
-30 -20 0 -36 -4 -36 -10 0 -5 15 -10 34 -10 38 0 57 -17 35 -31 -8 -5 -26 -9
-41 -9 -24 0 -28 -4 -28 -30 0 -33 -23 -42 -34 -13 -4 9 -10 68 -13 131 l-6
114 24 -4 c16 -2 25 -11 27 -25z m366 -19 c29 -25 37 -37 29 -45 -19 -19 -102
48 -88 71 9 15 16 12 59 -26z m-71 -50 c3 -4 -5 -28 -19 -55 l-24 -49 28 0
c32 0 53 16 45 36 -3 9 2 14 14 14 14 0 24 -15 41 -60 21 -59 21 -60 1 -60
-11 0 -23 10 -29 24 -8 22 -12 23 -46 16 -42 -10 -89 -3 -103 14 -6 8 2 30 26
69 32 53 50 67 66 51z m367 -25 c0 -6 -9 -13 -20 -16 -18 -5 -25 -20 -17 -40
1 -4 11 -7 22 -7 57 -2 -7 -51 -82 -63 -38 -6 -46 14 -13 35 11 7 20 21 20 31
0 15 -7 19 -31 17 -51 -2 -46 21 8 38 58 18 113 20 113 5z m536 -374 c43 -18
43 -39 3 -81 l-32 -33 30 -25 c41 -34 45 -58 20 -108 -22 -44 -59 -70 -83 -61
-21 8 -17 22 16 55 42 42 39 72 -10 104 -22 15 -40 32 -40 39 0 7 16 25 35 39
40 31 38 46 -5 46 -31 0 -64 25 -54 42 8 12 72 3 120 -17z m846 5 c39 0 68
-27 68 -64 0 -68 -70 -226 -106 -240 -32 -12 -39 13 -42 142 -4 144 6 189 37
172 11 -5 30 -10 43 -10z m304 -1 c18 -20 18 -21 -4 -60 l-22 -39 20 -20 c27
-27 25 -64 -5 -115 -45 -77 -124 -94 -125 -26 -1 14 -7 44 -15 66 -12 34 -12
41 0 55 19 21 19 64 0 80 -8 7 -15 18 -15 25 0 47 130 74 166 34z m-1570 -14
c5 -21 12 -25 46 -25 35 0 39 -2 36 -22 -2 -18 -10 -24 -39 -26 -36 -3 -37 -4
-44 -57 -4 -34 -12 -55 -22 -59 -27 -11 -35 4 -28 55 4 27 4 49 1 49 -4 0 -22
-6 -40 -14 -33 -14 -34 -16 -26 -50 14 -62 48 -96 95 -96 18 0 35 -3 38 -7 14
-14 -17 -33 -53 -33 -60 0 -103 46 -134 142 -3 10 -11 15 -20 12 -8 -3 -19 3
-25 15 -15 27 -15 28 15 35 22 6 25 11 22 43 -2 23 2 38 10 41 18 6 42 -17 42
-39 0 -21 16 -24 54 -9 18 6 26 17 26 33 0 44 36 53 46 12z m597 18 c3 -5 8
-36 12 -70 6 -54 5 -63 -9 -63 -21 0 -34 27 -42 88 -6 48 -5 52 14 52 12 0 23
-3 25 -7z m-84 -40 c6 -16 15 -43 21 -61 9 -32 8 -33 -17 -30 -23 3 -28 10
-38 55 -7 29 -10 55 -7 58 13 12 30 3 41 -22z m-915 -11 c2 -4 8 -47 12 -95 6
-76 5 -87 -10 -93 -27 -10 -34 5 -41 91 -8 98 -8 89 -6 98 1 9 38 9 45 -1z
m1440 0 c2 -4 8 -47 12 -95 6 -76 5 -87 -10 -93 -27 -10 -34 5 -41 91 -8 98
-8 89 -6 98 1 9 38 9 45 -1z m-1696 -34 c7 -7 12 -23 12 -37 0 -15 11 -50 25
-79 32 -68 32 -82 -1 -82 -19 0 -28 8 -39 33 -21 51 -46 157 -40 167 8 14 29
12 43 -2z m1440 0 c7 -7 12 -23 12 -37 0 -15 11 -50 25 -79 32 -68 32 -82 -1
-82 -19 0 -28 8 -39 33 -21 51 -46 157 -40 167 8 14 29 12 43 -2z m-240 -110
c45 -35 56 -68 22 -68 -11 0 -23 7 -26 15 -3 8 -21 24 -40 36 -19 11 -34 27
-34 35 0 24 34 16 78 -18z m-222 1 c11 -18 -37 -109 -58 -109 -30 0 -32 27 -7
75 23 44 50 58 65 34z"/>
<path d="M4521 2596 c-8 -9 -11 -41 -9 -88 l3 -73 23 60 c29 74 32 108 11 113
-9 1 -21 -4 -28 -12z"/>
<path d="M4757 2613 c-4 -3 -7 -17 -7 -31 0 -21 2 -23 16 -12 8 8 20 22 25 32
8 14 6 18 -9 18 -10 0 -22 -3 -25 -7z"/>
<path d="M4772 2484 c-16 -11 -22 -25 -22 -52 l1 -37 29 33 c28 30 40 72 22
72 -4 0 -18 -7 -30 -16z"/>
<path d="M313 3769 l2 -315 25 -30 c111 -134 366 -257 650 -312 186 -37 291
-46 510 -46 225 0 365 15 543 56 77 18 90 23 99 47 28 69 103 221 131 266 88
140 231 301 345 387 l52 40 0 110 0 110 -47 -63 c-232 -309 -962 -461 -1599
-334 -329 66 -555 188 -691 371 l-22 29 2 -316z"/>
<path d="M316 3189 c-3 -94 -3 -220 0 -281 l7 -112 51 -48 c122 -117 338 -213
606 -268 181 -37 271 -45 515 -44 234 0 354 11 511 45 l52 12 -1 151 c0 151
11 259 39 370 8 32 14 59 12 61 -2 1 -53 -8 -113 -20 -214 -44 -540 -58 -776
-35 -359 35 -690 154 -860 307 l-36 33 -7 -171z"/>
<path d="M318 2553 c-2 -258 0 -272 68 -365 67 -90 226 -192 388 -248 57 -19
83 -20 719 -20 646 0 737 4 737 32 0 5 -15 39 -34 76 -40 79 -91 230 -110 325
-8 38 -17 71 -19 73 -2 3 -58 -6 -123 -18 -109 -21 -147 -23 -454 -23 -308 0
-345 2 -455 23 -288 55 -533 153 -657 261 -25 23 -49 41 -52 41 -3 0 -7 -71
-8 -157z"/>
<path d="M0 955 l0 -955 130 0 130 0 0 360 c0 307 2 361 15 366 8 3 17 14 20
25 6 19 30 19 935 19 876 0 929 1 933 18 4 14 5 13 6 -4 0 -11 14 -33 31 -47
l30 -27 330 0 330 0 30 27 c17 14 31 36 31 47 1 17 2 18 6 4 4 -17 57 -18 932
-18 l927 0 11 -30 c6 -17 22 -34 35 -39 12 -6 17 -10 11 -10 -10 -1 -13 -77
-13 -346 l0 -345 130 0 130 0 0 955 0 955 -2560 0 -2560 0 0 -955z m2728 858
c-93 -2 -243 -2 -335 0 -93 1 -17 3 167 3 184 0 260 -2 168 -3z m-518 -6 c0
-2 -10 -12 -22 -23 l-23 -19 19 23 c18 21 26 27 26 19z m725 -17 c10 -11 16
-20 13 -20 -3 0 -13 9 -23 20 -10 11 -16 20 -13 20 3 0 13 -9 23 -20z m-768
-52 c-3 -8 -6 -5 -6 6 -1 11 2 17 5 13 3 -3 4 -12 1 -19z m790 0 c-3 -8 -6 -5
-6 6 -1 11 2 17 5 13 3 -3 4 -12 1 -19z m1881 -118 c-7 -10 -14 -17 -17 -15
-4 4 18 35 25 35 2 0 -1 -9 -8 -20z m-4534 -6 c3 -8 2 -12 -4 -9 -6 3 -10 10
-10 16 0 14 7 11 14 -7z m2161 -29 c28 -27 30 -42 14 -79 -33 -71 -139 -44
-139 35 0 28 44 69 75 69 14 0 37 -11 50 -25z m295 5 c43 -43 12 -123 -48
-123 -58 0 -93 53 -67 103 8 15 20 30 27 33 29 12 69 6 88 -13z m-610 -45 c0
-13 -109 -15 -925 -15 -816 0 -925 2 -925 15 0 13 109 15 925 15 816 0 925 -2
925 -15z m2670 0 c0 -13 -109 -15 -925 -15 -816 0 -925 2 -925 15 0 13 109 15
925 15 816 0 925 -2 925 -15z m-2670 -80 c0 -13 -109 -15 -925 -15 -816 0
-925 2 -925 15 0 13 109 15 925 15 816 0 925 -2 925 -15z m2670 0 c0 -13 -109
-15 -925 -15 -816 0 -925 2 -925 15 0 13 109 15 925 15 816 0 925 -2 925 -15z
m-2670 -80 c0 -13 -109 -15 -925 -15 -816 0 -925 2 -925 15 0 13 109 15 925
15 816 0 925 -2 925 -15z m2670 0 c0 -13 -109 -15 -925 -15 -816 0 -925 2
-925 15 0 13 109 15 925 15 816 0 925 -2 925 -15z m-2376 -16 c13 -7 30 -25
37 -42 35 -84 -95 -135 -133 -52 -15 34 -1 76 32 92 31 16 33 16 64 2z m319
-21 c37 -44 7 -118 -47 -118 -38 0 -56 10 -71 40 -40 77 62 145 118 78z m-613
-43 c0 -13 -109 -15 -925 -15 -816 0 -925 2 -925 15 0 13 109 15 925 15 816 0
925 -2 925 -15z m2670 0 c0 -13 -109 -15 -925 -15 -816 0 -925 2 -925 15 0 13
109 15 925 15 816 0 925 -2 925 -15z m-2670 -80 c0 -13 -112 -15 -925 -15
-874 0 -925 1 -925 18 0 16 50 17 925 14 812 -2 925 -4 925 -17z m2670 5 c0
-20 -7 -20 -925 -20 -814 0 -925 2 -925 15 0 13 112 15 923 18 507 1 923 3
925 5 1 1 2 -7 2 -18z m-2670 -80 c0 -20 -7 -20 -925 -20 -918 0 -925 0 -925
20 0 20 7 20 925 20 918 0 925 0 925 -20z m2670 0 c0 -20 -7 -20 -925 -20
-918 0 -925 0 -925 20 0 20 7 20 925 20 918 0 925 0 925 -20z m-2382 -16 c34
-9 54 -55 41 -92 -9 -28 -44 -52 -73 -52 -7 0 -25 9 -40 21 -19 15 -26 30 -26
54 0 24 7 39 26 54 29 23 36 24 72 15z m322 -14 c43 -43 12 -123 -48 -123 -58
0 -93 53 -67 103 8 15 20 30 27 33 29 12 69 6 88 -13z m-610 -50 c0 -20 -7
-20 -925 -20 -918 0 -925 0 -925 20 0 20 7 20 925 20 918 0 925 0 925 -20z
m2670 0 c0 -20 -7 -20 -925 -20 -918 0 -925 0 -925 20 0 20 7 20 925 20 918 0
925 0 925 -20z m-2670 -75 c0 -13 -113 -15 -925 -17 -875 -3 -925 -2 -925 15
0 16 51 17 925 17 813 0 925 -2 925 -15z m2670 -2 c0 -17 -50 -18 -925 -15
-812 2 -925 4 -925 17 0 13 112 15 925 15 874 0 925 -1 925 -17z m-2197 -75
c37 -44 7 -118 -49 -118 -58 0 -95 50 -74 101 21 50 87 60 123 17z m-473 -3
c0 -13 -109 -15 -925 -15 -816 0 -925 2 -925 15 0 13 109 15 925 15 816 0 925
-2 925 -15z m2670 0 c0 -13 -109 -15 -925 -15 -816 0 -925 2 -925 15 0 13 109
15 925 15 816 0 925 -2 925 -15z m-2670 -80 c0 -13 -109 -15 -925 -15 -816 0
-925 2 -925 15 0 13 109 15 925 15 816 0 925 -2 925 -15z m2670 0 c0 -13 -109
-15 -925 -15 -816 0 -925 2 -925 15 0 13 109 15 925 15 816 0 925 -2 925 -15z"/>
<path d="M765 678 c-11 -6 -23 -16 -27 -22 -4 -6 -8 -115 -8 -243 0 -197 2
-234 16 -247 14 -14 191 -16 1804 -16 1613 0 1790 2 1804 16 14 13 16 50 16
247 0 128 -4 237 -8 243 -4 6 -17 16 -29 23 -31 16 -3539 15 -3568 -1z"/>
<path d="M412 508 c-17 -17 -17 -259 0 -276 17 -17 259 -17 276 0 17 17 17
259 0 276 -17 17 -259 17 -276 0z"/>
<path d="M4412 508 c-17 -17 -17 -259 0 -276 17 -17 259 -17 276 0 17 17 17
259 0 276 -17 17 -259 17 -276 0z"/>
<path d="M407 183 c-1 -1 -1 -42 1 -92 l3 -91 140 0 139 0 0 85 c0 47 -1 88
-2 91 -3 4 -277 12 -281 7z"/>
<path d="M4408 185 c-1 -2 -2 -44 0 -94 l3 -91 140 0 139 0 0 85 c0 47 0 88 0
93 0 7 -275 14 -282 7z"/>
<path d="M1010 111 c0 -5 5 -32 12 -60 l11 -51 54 0 c29 0 53 4 53 9 0 5 -5
32 -12 60 l-11 51 -54 0 c-29 0 -53 -4 -53 -9z"/>
<path d="M1192 69 c-7 -28 -12 -55 -12 -60 0 -5 24 -9 53 -9 l54 0 11 51 c7
28 12 55 12 60 0 5 -24 9 -53 9 l-54 0 -11 -51z"/>
<path d="M1410 111 c0 -5 5 -32 12 -60 l11 -51 54 0 c29 0 53 4 53 9 0 5 -5
32 -12 60 l-11 51 -54 0 c-29 0 -53 -4 -53 -9z"/>
<path d="M1592 69 c-7 -28 -12 -55 -12 -60 0 -5 24 -9 53 -9 l54 0 11 51 c7
28 12 55 12 60 0 5 -24 9 -53 9 l-54 0 -11 -51z"/>
<path d="M1810 111 c0 -5 5 -32 12 -60 l11 -51 54 0 c29 0 53 4 53 9 0 5 -5
32 -12 60 l-11 51 -54 0 c-29 0 -53 -4 -53 -9z"/>
<path d="M1992 69 c-7 -28 -12 -55 -12 -60 0 -5 24 -9 53 -9 l54 0 11 51 c7
28 12 55 12 60 0 5 -24 9 -53 9 l-54 0 -11 -51z"/>
<path d="M2210 111 c0 -5 5 -32 12 -60 l11 -51 54 0 c29 0 53 4 53 9 0 5 -5
32 -12 60 l-11 51 -54 0 c-29 0 -53 -4 -53 -9z"/>
<path d="M2392 69 c-7 -28 -12 -55 -12 -60 0 -5 24 -9 53 -9 l54 0 11 51 c7
28 12 55 12 60 0 5 -24 9 -53 9 l-54 0 -11 -51z"/>
<path d="M2610 111 c0 -5 5 -32 12 -60 l11 -51 54 0 c29 0 53 4 53 9 0 5 -5
32 -12 60 l-11 51 -54 0 c-29 0 -53 -4 -53 -9z"/>
<path d="M2792 69 c-7 -28 -12 -55 -12 -60 0 -5 24 -9 53 -9 l54 0 11 51 c7
28 12 55 12 60 0 5 -24 9 -53 9 l-54 0 -11 -51z"/>
<path d="M3010 111 c0 -5 5 -32 12 -60 l11 -51 54 0 c29 0 53 4 53 9 0 5 -5
32 -12 60 l-11 51 -54 0 c-29 0 -53 -4 -53 -9z"/>
<path d="M3192 69 c-7 -28 -12 -55 -12 -60 0 -5 24 -9 53 -9 l54 0 11 51 c7
28 12 55 12 60 0 5 -24 9 -53 9 l-54 0 -11 -51z"/>
<path d="M3410 111 c0 -5 5 -32 12 -60 l11 -51 54 0 c29 0 53 4 53 9 0 5 -5
32 -12 60 l-11 51 -54 0 c-29 0 -53 -4 -53 -9z"/>
<path d="M3592 69 c-7 -28 -12 -55 -12 -60 0 -5 24 -9 53 -9 l54 0 11 51 c7
28 12 55 12 60 0 5 -24 9 -53 9 l-54 0 -11 -51z"/>
<path d="M3810 111 c0 -5 5 -32 12 -60 l11 -51 54 0 c29 0 53 4 53 9 0 5 -5
32 -12 60 l-11 51 -54 0 c-29 0 -53 -4 -53 -9z"/>
<path d="M3992 69 c-7 -28 -12 -55 -12 -60 0 -5 24 -9 53 -9 l54 0 11 51 c7
28 12 55 12 60 0 5 -24 9 -53 9 l-54 0 -11 -51z"/>
</g>
</svg>
